<?xml version="1.0" encoding="UTF-8"?><svg id="uuid-5825e393-6a23-40cc-ba45-4639f8d03fbc" xmlns="http://www.w3.org/2000/svg" xmlns:xlink="http://www.w3.org/1999/xlink" viewBox="0 0 394 394"><defs><clipPath id="uuid-dbe9d605-a746-4a8e-b4b8-b54812320e8e"><rect width="394" height="394" style="fill:none; stroke-width:0px;"/></clipPath><clipPath id="uuid-2a782c17-747f-412c-b932-281c48abe4f7"><rect x="-203.23" y="-132.45" width="799.92" height="659.04" style="fill:none; stroke-width:0px;"/></clipPath></defs><g style="clip-path:url(#uuid-dbe9d605-a746-4a8e-b4b8-b54812320e8e);"><g style="clip-path:url(#uuid-2a782c17-747f-412c-b932-281c48abe4f7);"><path d="m196.91,392.15c-108.1-.07-195.29-88.36-194.86-195.81C2.48,89.37,89.79,1.71,197.78,2.14c108.48.43,195.34,89.74,194.13,197.24-1.18,105.25-87.1,192.73-195.01,192.77Z" style="stroke-width:0px;"/><path d="m379.26,197.28c-.1,100.95-82.56,182.77-183.37,182.2-99.23-.56-181.62-81.48-181.16-183.2C15.18,94.61,98.52,14.06,198.32,14.8c99.39.73,180.96,81.85,180.94,182.48Z" style="fill:#fff; stroke-width:0px;"/><path d="m178.42,100.35c-2.24.82-4.27,1.76-6.41,2.32-3.51.93-7,.37-10.39-.74-6.49-2.11-12.16-5.66-17.16-10.26-3.76-3.47-7.28-7.21-11.15-10.55-2.46-2.12-5.22-3.97-8.08-5.52-3.96-2.14-7.77-1.28-11.07,1.66-1.12,1-2.17,2.15-3.01,3.4-1.15,1.72-2.2,3.54-3.04,5.43-7.17,16.27-6.72,32.28,1.72,48,.6,1.12,1.16,2.3,1.46,3.53.37,1.46.53,3.01-.82,4.21-1.4-.08-2.14-1.09-2.94-1.95-2.56-2.8-4.37-6.09-6.14-9.41-7.95-14.92-7.68-30.4-3.06-46.12,2.27-7.74,5.82-14.91,11.01-21.13,1.93-2.32,4.11-4.51,6.48-6.37,8.04-6.29,16.92-7.52,26.41-3.75,6.16,2.45,11.55,6.18,16.55,10.46,2.95,2.52,6.34,3.79,10.05,4.78,3.47.93,6.98-1.84,7.42-5.29.29-2.3.49-4.61.74-6.91.1-.94.23-1.89.37-3.01,5.76-1.94,11.67-2.04,17.56-2.18.89-.02,1.79.33,2.8.53.1,1.22.26,2.15.24,3.09-.38,24.47-.77,48.94-1.18,73.42-.3,18.31-.63,36.63-.95,54.94-.35,19.75-.7,39.5-1.06,59.26-.01.62-.11,1.23-.2,2.21-5.95-3.95-11.65-7.73-17.47-11.59.11-22.11-.1-44.17.42-66.24.52-22.06.6-44.12.87-66.23Z" style="stroke-width:0px;"/><path d="m220.46,186.75c.96.6,1.7,1.02,2.4,1.5,26.85,18.25,53.7,36.51,80.55,54.76,1.39.94,2.81,1.84,4.2,2.79,2.14,1.46,3.99,3.21,5.23,5.52,1.85,3.44,1.81,6.89-.1,10.3-1.2,2.14-2.93,3.79-4.91,5.19-12.21,8.64-24.42,17.27-36.63,25.9-.58.41-1.19.78-1.96,1.29-16.24-10.78-32.47-21.56-48.78-32.39v-74.85Z" style="stroke-width:0px;"/><path d="m194.55,346.79c-2.05.4-3.98,1.03-5.93,1.1-4.07.14-7.27-1.62-9.36-5.18-1.19-2.03-1.83-4.26-2-6.6-.1-1.43-.13-2.88-.13-4.31,0-23.19,0-46.39,0-69.58,0-.84,0-1.68,0-3.04,6.09,4.06,11.72,7.81,17.43,11.61v76.01Z" style="stroke-width:0px;"/><path d="m220.41,328.93v-40.41c1.73.5,25.61,16.18,29.68,19.49-9.81,6.92-19.54,13.78-29.68,20.92Z" style="stroke-width:0px;"/><path d="m200.31,248.15c-1.16-.74-1.94-1.24-2.72-1.75v-75.25c1.09.72,1.92,1.26,2.72,1.79v75.21Z" style="stroke-width:0px;"/><path d="m205.98,251.99c-1.14-.77-1.91-1.29-2.67-1.8v-75.08c1.02.63,1.81,1.11,2.67,1.64v75.24Z" style="stroke-width:0px;"/><path d="m211.77,255.79c-1.18-.77-1.96-1.29-2.77-1.82v-75.04c1.06.67,1.9,1.2,2.77,1.75v75.11Z" style="stroke-width:0px;"/><path d="m214.74,182.75c1.18.8,1.96,1.33,2.73,1.86v74.93c-1.09-.71-1.92-1.25-2.73-1.77v-75.02Z" style="stroke-width:0px;"/><path d="m197.62,272.95c1.02.62,1.8,1.1,2.64,1.62v68.51c-.73.51-1.54,1.07-2.64,1.84v-71.97Z" style="stroke-width:0px;"/><path d="m206.02,339.05c-.7.49-1.27.92-1.87,1.32-.18.12-.42.14-.81.26v-63.88c1.01.62,1.84,1.14,2.68,1.66v60.64Z" style="stroke-width:0px;"/><path d="m209.11,280.52c1.06.69,1.84,1.21,2.65,1.74v52.71c-.73.53-1.54,1.12-2.42,1.76-.53-1.91-.72-51.77-.23-56.2Z" style="stroke-width:0px;"/><path d="m217.5,330.96c-.82.57-1.6,1.11-2.4,1.66-.57-1.66-.76-44.7-.2-48.23.93.61,1.76,1.15,2.6,1.7v44.87Z" style="stroke-width:0px;"/></g></g></svg>
